<svg width="25" height="24" viewBox="0 0 25 24" fill="none" xmlns="http://www.w3.org/2000/svg">
<g clip-path="url(#clip0_1_132)">
<path fill-rule="evenodd" clip-rule="evenodd" d="M12.5 2.25C7.11522 2.25 2.75 6.61522 2.75 12C2.75 17.3848 7.11522 21.75 12.5 21.75C17.8848 21.75 22.25 17.3848 22.25 12C22.2443 6.61758 17.8824 2.25568 12.5 2.25ZM10.0278 15.75H14.9722C14.4688 17.4694 13.625 19.0191 12.5 20.2397C11.375 19.0191 10.5312 17.4694 10.0278 15.75ZM9.6875 14.25C9.43875 12.7603 9.43875 11.2397 9.6875 9.75H15.3125C15.5612 11.2397 15.5612 12.7603 15.3125 14.25H9.6875ZM4.25 12C4.24935 11.2392 4.35441 10.4819 4.56219 9.75H8.16781C7.94406 11.2417 7.94406 12.7583 8.16781 14.25H4.56219C4.35441 13.5181 4.24935 12.7608 4.25 12ZM14.9722 8.25H10.0278C10.5312 6.53062 11.375 4.98094 12.5 3.76031C13.625 4.98094 14.4688 6.53062 14.9722 8.25ZM16.8322 9.75H20.4378C20.8541 11.2211 20.8541 12.7789 20.4378 14.25H16.8322C17.0559 12.7583 17.0559 11.2417 16.8322 9.75ZM19.8472 8.25H16.5256C16.1429 6.74392 15.5001 5.31623 14.6263 4.03125C16.8838 4.63793 18.78 6.17014 19.8472 8.25ZM10.3737 4.03125C9.4999 5.31623 8.85712 6.74392 8.47437 8.25H5.15281C6.21999 6.17014 8.11618 4.63793 10.3737 4.03125ZM5.15281 15.75H8.47437C8.85712 17.2561 9.4999 18.6838 10.3737 19.9688C8.11618 19.3621 6.21999 17.8299 5.15281 15.75ZM14.6263 19.9688C15.5001 18.6838 16.1429 17.2561 16.5256 15.75H19.8472C18.78 17.8299 16.8838 19.3621 14.6263 19.9688Z" fill="#9A3B3B"/>
</g>
<defs>
<clipPath id="clip0_1_132">
<rect width="24" height="24" fill="white" transform="translate(0.5)"/>
</clipPath>
</defs>
</svg>